<svg width="1000" height="550" viewBox="0 0 1000 550" fill="none" xmlns="http://www.w3.org/2000/svg">
  <defs>
    <!-- Turbulence displacement filter to simulate wobbly hand-drawn strokes -->
    <filter id="rough-edge" x="-10%" y="-10%" width="120%" height="120%">
      <feTurbulence type="fractalNoise" baseFrequency="0.04" numOctaves="3" result="noise" />
      <feDisplacementMap in="SourceGraphic" in2="noise" scale="3.5" xChannelSelector="R" yChannelSelector="G" />
    </filter>
  </defs>

  <!-- Dark sketchpad canvas -->
  <rect width="1000" height="550" rx="16" fill="#18181C" />
  
  <!-- Canvas Grid -->
  <g opacity="0.04" stroke="#ffffff" stroke-width="1">
    <path d="M 0,50 L 1000,50 M 0,100 L 1000,100 M 0,150 L 1000,150 M 0,200 L 1000,200 M 0,250 L 1000,250 M 0,300 L 1000,300 M 0,350 L 1000,350 M 0,400 L 1000,400 M 0,450 L 1000,450 M 0,500 L 1000,500 M 0,550 L 1000,550" />
    <path d="M 100,0 L 100,550 M 200,0 L 200,550 M 300,0 L 300,550 M 400,0 L 400,550 M 500,0 L 500,550 M 600,0 L 600,550 M 700,0 L 700,550 M 800,0 L 800,550 M 900,0 L 900,550" />
  </g>
  
  <!-- Section Title -->
  <text x="50" y="55" font-family="'Virgil', 'Comic Sans MS', cursive, sans-serif" font-size="28" font-weight="bold" fill="#ECE6DC" filter="url(#rough-edge)">GripC0re Lifetime Roadmap</text>
  <text x="50" y="85" font-family="'Virgil', 'Comic Sans MS', cursive, sans-serif" font-size="14" fill="#7E7E8A" filter="url(#rough-edge)">LONG-TERM PRODUCT PHASES &amp; DECENTRALIZED SPECIFICATION</text>

  <!-- ── PROGRESS PATH (Hand-drawn wobbly path) ── -->
  <path d="M 100,250 Q 250,150 450,250 T 800,250 M 800,250 L 900,250" stroke="#ECE6DC" stroke-opacity="0.3" stroke-width="4" stroke-dasharray="10 5" fill="none" filter="url(#rough-edge)" />

  <!-- ── PHASE 1: Local MVP (Active) ── -->
  <g transform="translate(60, 200)" filter="url(#rough-edge)">
    <rect width="130" height="90" rx="8" fill="#14B8A6" stroke="#ECE6DC" stroke-width="2" />
    <text x="18" y="32" font-family="'Virgil', 'Comic Sans MS', cursive, sans-serif" font-size="14" font-weight="bold" fill="#18181C">Phase 1</text>
    <text x="18" y="52" font-family="'Virgil', 'Comic Sans MS', cursive, sans-serif" font-size="13" font-weight="bold" fill="#18181C">Local MVP</text>
    <text x="18" y="70" font-family="'Virgil', 'Comic Sans MS', cursive, sans-serif" font-size="10" fill="#18181C">FastAPI, SQLite,</text>
    <text x="18" y="80" font-family="'Virgil', 'Comic Sans MS', cursive, sans-serif" font-size="10" fill="#18181C">SPA, Local key</text>
  </g>

  <!-- ── PHASE 2: Pipeline Sync ── -->
  <g transform="translate(230, 80)" filter="url(#rough-edge)">
    <rect width="140" height="90" rx="8" fill="#242429" stroke="#E05A47" stroke-width="2" />
    <text x="18" y="32" font-family="'Virgil', 'Comic Sans MS', cursive, sans-serif" font-size="14" font-weight="bold" fill="#E05A47">Phase 2</text>
    <text x="18" y="52" font-family="'Virgil', 'Comic Sans MS', cursive, sans-serif" font-size="13" font-weight="bold" fill="#ECE6DC">Sync Pipeline</text>
    <text x="18" y="70" font-family="'Virgil', 'Comic Sans MS', cursive, sans-serif" font-size="10" fill="#7E7E8A">Multi-source crawler</text>
    <text x="18" y="80" font-family="'Virgil', 'Comic Sans MS', cursive, sans-serif" font-size="10" fill="#7E7E8A">Global cache sync</text>
  </g>

  <!-- ── PHASE 3: Local Models ── -->
  <g transform="translate(420, 200)" filter="url(#rough-edge)">
    <rect width="140" height="90" rx="8" fill="#242429" stroke="#ECE6DC" stroke-width="1.8" />
    <text x="18" y="32" font-family="'Virgil', 'Comic Sans MS', cursive, sans-serif" font-size="14" font-weight="bold" fill="#ECE6DC">Phase 3</text>
    <text x="18" y="52" font-family="'Virgil', 'Comic Sans MS', cursive, sans-serif" font-size="13" font-weight="bold" fill="#ECE6DC">Local LLMs</text>
    <text x="18" y="70" font-family="'Virgil', 'Comic Sans MS', cursive, sans-serif" font-size="10" fill="#7E7E8A">Ollama connection</text>
    <text x="18" y="80" font-family="'Virgil', 'Comic Sans MS', cursive, sans-serif" font-size="10" fill="#7E7E8A">Complete offline run</text>
  </g>

  <!-- ── PHASE 4: Offline App (PWA) ── -->
  <g transform="translate(610, 80)" filter="url(#rough-edge)">
    <rect width="140" height="90" rx="8" fill="#242429" stroke="#ECE6DC" stroke-width="1.8" />
    <text x="18" y="32" font-family="'Virgil', 'Comic Sans MS', cursive, sans-serif" font-size="14" font-weight="bold" fill="#ECE6DC">Phase 4</text>
    <text x="18" y="52" font-family="'Virgil', 'Comic Sans MS', cursive, sans-serif" font-size="13" font-weight="bold" fill="#ECE6DC">Offline PWA</text>
    <text x="18" y="70" font-family="'Virgil', 'Comic Sans MS', cursive, sans-serif" font-size="10" fill="#7E7E8A">Service workers</text>
    <text x="18" y="80" font-family="'Virgil', 'Comic Sans MS', cursive, sans-serif" font-size="10" fill="#7E7E8A">Offline digest reading</text>
  </g>

  <!-- ── PHASE 5: P2P Network ── -->
  <g transform="translate(800, 200)" filter="url(#rough-edge)">
    <rect width="140" height="90" rx="8" fill="#242429" stroke="#ECE6DC" stroke-width="1.8" />
    <text x="18" y="32" font-family="'Virgil', 'Comic Sans MS', cursive, sans-serif" font-size="14" font-weight="bold" fill="#ECE6DC">Phase 5</text>
    <text x="18" y="52" font-family="'Virgil', 'Comic Sans MS', cursive, sans-serif" font-size="13" font-weight="bold" fill="#ECE6DC">Decentralized</text>
    <text x="18" y="70" font-family="'Virgil', 'Comic Sans MS', cursive, sans-serif" font-size="10" fill="#7E7E8A">Peer-to-peer sync</text>
    <text x="18" y="80" font-family="'Virgil', 'Comic Sans MS', cursive, sans-serif" font-size="10" fill="#7E7E8A">No central servers</text>
  </g>

  <!-- ── SUBTITLE BOARD (Bottom Center) ── -->
  <g transform="translate(50, 420)" filter="url(#rough-edge)">
    <rect width="900" height="80" rx="10" fill="#242429" stroke="#ECE6DC" stroke-width="1.8" />
    <text x="30" y="35" font-family="'Virgil', 'Comic Sans MS', cursive, sans-serif" font-size="15" font-weight="bold" fill="#ECE6DC">Architectural Milestone Target</text>
    <text x="30" y="58" font-family="'Virgil', 'Comic Sans MS', cursive, sans-serif" font-size="13" fill="#7E7E8A">Building from localized hand-crafted foundations to a privacy-first, serverless developer network.</text>
  </g>
</svg>
